<svg width="32" height="32" xmlns="http://www.w3.org/2000/svg">
 <title/>
 <desc/>

 <g>
  <title>background</title>
  <rect fill="none" id="canvas_background" height="402" width="582" y="-1" x="-1"/>
 </g>
 <g>
  <title>Layer 1</title>
  <path stroke="null" fill="#0065e1" id="notebook" d="m23.28658,0.419469l2.315616,0c1.279452,0 2.309649,1.039193 2.309649,2.321108l0,26.578323c0,1.282343 -1.034071,2.321108 -2.309649,2.321108l-17.350711,0c-1.279452,0 -2.309649,-1.039193 -2.309649,-2.321108l0,-26.578323c0,-1.282343 1.034071,-2.321108 2.309649,-2.321108l8.097197,0l0,15.032112l3.468949,-3.468949l3.468949,3.468949l0,-15.032112l0,0l0,0zm-19.657377,8.094214l0,1.156316l2.312633,0l0,-1.156316l-2.312633,0l0,0zm0,4.625265l0,1.156316l2.312633,0l0,-1.156316l-2.312633,0l0,0zm0,-9.25053l0,1.156316l2.312633,0l0,-1.156316l-2.312633,0l0,0zm0,18.50106l0,1.156316l2.312633,0l0,-1.156316l-2.312633,0l0,0zm0,4.625265l0,1.156316l2.312633,0l0,-1.156316l-2.312633,0l0,0zm0,-9.25053l0,1.156316l2.312633,0l0,-1.156316l-2.312633,0l0,0zm2.312633,-9.25053l0,1.156316l2.312633,0l0,-1.156316l-2.312633,0l0,0zm0,4.625265l0,1.156316l2.312633,0l0,-1.156316l-2.312633,0l0,0zm0,-9.25053l0,1.156316l2.312633,0l0,-1.156316l-2.312633,0l0,0zm0,18.50106l0,1.156316l2.312633,0l0,-1.156316l-2.312633,0l0,0zm0,4.625265l0,1.156316l2.312633,0l0,-1.156316l-2.312633,0l0,0zm0,-9.25053l0,1.156316l2.312633,0l0,-1.156316l-2.312633,0l0,0zm11.563163,-17.344744l0,12.256929l2.312633,-2.312633l2.312633,2.312633l0,-12.256929l-4.625265,0l0,0z"/>
 </g>
</svg>