<svg width="256" height="256" xmlns="http://www.w3.org/2000/svg">

 <g>
  <title>background</title>
  <rect fill="none" id="canvas_background" height="402" width="582" y="-1" x="-1"/>
 </g>
 <g>
  <title>Layer 1</title>
  <path fill="#0065e1" id="svg_2" d="m29.4,190.9c2.8,0 5,-2.2 5,-5l0,-52.3l30.2,-16.2l0,42.9c0,2.8 2.2,5 5,5c2.8,0 5,-2.2 5,-5l0,-59.6l-50.1,26.9l0,58.3c-0.1,2.7 2.1,5 4.9,5z"/>
  <path fill="#0065e1" id="svg_3" d="m89.6,153c2.8,0 5,-2.2 5,-5l0,-88.4l30.2,-16.2l0,143.8c0,2.8 2.2,5 5,5c2.8,0 5,-2.2 5,-5l0,-160.5l-50.2,26.9l0,94.4c0,2.7 2.2,5 5,5z"/>
  <path fill="#0065e1" id="svg_4" d="m149.8,185.7c2.8,0 5,-2.2 5,-5l0,-95.3l30.2,-16.2l0,86.3c0,2.8 2.2,5 5,5c2.8,0 5,-2.2 5,-5l0,-103l-50.1,26.9l0,101.3c-0.1,2.8 2.2,5 4.9,5z"/>
  <path fill="#0065e1" id="svg_5" d="m250,146.2c-0.9,-1.5 -2.5,-2.5 -4.3,-2.5l-34.5,0c-1.8,0 -3.4,1 -4.3,2.5c-0.9,1.5 -0.9,3.4 0,5l6.2,10.7l-27.5,16.7c-4.2,2.6 -8.3,5.1 -12.5,7.7c-3,1.9 -6,3.7 -8.9,5.6c-7.8,5 -14.7,9.5 -21.1,13.9c-3.3,2.2 -6.5,4.5 -9.8,6.7l-44.8,-43.8l-80.8,51.4c-2.3,1.5 -3,4.6 -1.5,6.9c1,1.5 2.6,2.3 4.2,2.3c0.9,0 1.8,-0.3 2.7,-0.8l74,-47.1l45.2,44.1l6.1,-4.4c3.4,-2.4 6.8,-4.8 10.3,-7.1c6.3,-4.3 13.1,-8.7 20.9,-13.7c2.9,-1.9 5.9,-3.7 8.8,-5.6c4.1,-2.6 8.3,-5.1 12.4,-7.7l25.3,-15.5l2,-1.2l6.1,10.6c0.9,1.5 2.5,2.5 4.3,2.5s3.4,-1 4.3,-2.5l17.3,-29.9c0.8,-1.3 0.8,-3.2 -0.1,-4.8zm-21.6,22.4l-8.6,-14.9l17.2,0l-8.6,14.9z"/>
 </g>
</svg>